{"title":"Bad Teacher 2011 DVDrip English Klam","uid":6800308,"size":1562505887,"categoryP":"video","categoryS":"movies","magnet":"?xt=urn:btih:51f3066b9965b7a5892b7a7b0e286bae52473f0b&amp;dn=Bad+Teacher+2011+DVDrip+English+Klam&amp;tr=udp%3A%2F%2Ftracker.openbittorrent.com%3A80&amp;tr=udp%3A%2F%2Fopen.demonii.com%3A1337&amp;tr=udp%3A%2F%2Ftracker.coppersurfer.tk%3A6969&amp;tr=udp%3A%2F%2Fexodus.desync.com%3A6969","seeders":2,"leechers":0,"uploader":"Klambake","files":-1,"time":1320626418,"description":"With: Cameron Diaz, Justin Timberlake en Jason Segel\n\nSommige docenten doen maar wat. Elizabeth (Cameron Diaz), bijvoorbeeld. Ze is meedogenloos, onaangepast en vloekt er op los. Ze drinkt, wordt regelmatig high en wil niets liever dan een rijke man aan de haak slaan, zodat ze kan stoppen met haar flutbaan. Als ze gedumpt wordt door haar verloofde, zet ze alles op alles om een rijke, knappe vervanger (Justin Timberlake) voor zich te winnen. Elizabeth gaat de strijd aan met haar overenthousiaste collega Amy (Lucy Punch) en gaat niet in op de avances van een sarcastische, onfatsoenlijke gymleraar (Jason Segel).\n\nA comedy centered around a foul-mouthed, junior high teacher who, after being dumped by her sugar daddy, begins to woo a colleague -- a move that pits her against a well-loved teacher. \n\n------------------ Dutch Friends ------------------\nYou can find my Friends at: http://www.Film-Test.nl \n------ They got my dutch subs ----- and more ------\n\nGeneral:\n\nComplete name                    : Bad Teacher\\Bad Teacher.avi\nFormat                           : AVI\nFormat/Info                      : Audio Video Interleave\nFile size                        : 1.45 GiB\nDuration                         : 1h 33mn\nOverall bit rate                 : 2 224 Kbps\n\nVideo:\n\nFormat                           : MPEG-4 Visual\nFormat profile                   : Simple@L3\nFormat settings, BVOP            : No\nFormat settings, QPel            : No\nFormat settings, GMC             : No warppoints\nFormat settings, Matrix          : Default (H.263)\nCodec ID                         : XVID\nCodec ID/Hint                    : XviD\nDuration                         : 1h 33mn\nBit rate                         : 1 765 Kbps\nWidth                            : 652 pixels\nHeight                           : 352 pixels\nDisplay aspect ratio             : 1.852\nFrame rate                       : 25.000 fps\nColor space                      : YUV\nChroma subsampling               : 4:2:0\nBit depth                        : 8 bits\nScan type                        : Progressive\nCompression mode                 : Lossy\nBits/(Pixel*Frame)               : 0.308\nStream size                      : 1.15 GiB (79%)\nWriting library                  : XviD 1.1.2 (UTC 2006-11-01)\n\nAudio:\n\nFormat                           : AC-3\nFormat/Info                      : Audio Coding 3\nMode extension                   : CM (complete main)\nCodec ID                         : 2000\nDuration                         : 1h 33mn\nBit rate mode                    : Constant\nBit rate                         : 448 Kbps\nChannel(s)                       : 6 channels\nChannel positions                : Front: L C R, Side: L R, LFE\nSampling rate                    : 48.0 KHz\nBit depth                        : 16 bits\nCompression mode                 : Lossy\nStream size                      : 300 MiB (20%)\nAlignment                        : Aligned on interleaves\nInterleave, duration             : 32 ms (0.80 video frame)\nInterleave, preload duration     : 672 ms\n\n","torrent":{"xt":"urn:btih:51f3066b9965b7a5892b7a7b0e286bae52473f0b","amp;dn":"Bad+Teacher+2011+DVDrip+English+Klam","amp;tr":["udp%3A%2F%2Ftracker.openbittorrent.com%3A80","udp%3A%2F%2Fopen.demonii.com%3A1337","udp%3A%2F%2Ftracker.coppersurfer.tk%3A6969","udp%3A%2F%2Fexodus.desync.com%3A6969"],"infoHash":"51f3066b9965b7a5892b7a7b0e286bae52473f0b","infoHashBuffer":{"type":"Buffer","data":[81,243,6,107,153,101,183,165,137,43,122,123,14,40,107,174,82,71,63,11]},"announce":[],"urlList":[]}}